<?xml version="1.0" encoding="UTF-8"?>
<svg version="1.1" xmlns="http://www.w3.org/2000/svg" width="96" height="96">
<path d="M0 0 C0.90720795 0.00141495 1.81441589 0.0028299 2.74911499 0.00428772 C5.65308905 0.00989529 8.55698665 0.02244907 11.4609375 0.03515625 C13.42708222 0.04017027 15.39322815 0.04473335 17.359375 0.04882812 C22.1849254 0.05986719 27.01041847 0.0771369 31.8359375 0.09765625 C32.9609375 2.41015625 32.9609375 2.41015625 33.8359375 5.09765625 C33.1759375 6.08765625 32.5159375 7.07765625 31.8359375 8.09765625 C28.93625005 8.43510838 26.23430606 8.58697975 23.328125 8.609375 C22.58312744 8.62601196 21.83812988 8.64264893 21.07055664 8.65979004 C18.28430488 8.71767772 15.49756706 8.74986366 12.7109375 8.78515625 C6.4821875 8.88828125 0.2534375 8.99140625 -6.1640625 9.09765625 C-6.1640625 25.59765625 -6.1640625 42.09765625 -6.1640625 59.09765625 C10.3359375 59.09765625 26.8359375 59.09765625 43.8359375 59.09765625 C44.1659375 46.55765625 44.4959375 34.01765625 44.8359375 21.09765625 C46.4859375 20.43765625 48.1359375 19.77765625 49.8359375 19.09765625 C50.8259375 19.75765625 51.8159375 20.41765625 52.8359375 21.09765625 C53.15243704 24.16148658 53.27987105 27.01877653 53.26953125 30.0859375 C53.2747731 30.98128708 53.28001495 31.87663666 53.28541565 32.79911804 C53.29184694 34.69639041 53.29048458 36.59370258 53.28198242 38.4909668 C53.27350064 41.38858664 53.30217166 44.28421719 53.33398438 47.18164062 C53.3355972 49.02473899 53.3350173 50.86784085 53.33203125 52.7109375 C53.34326523 53.57568192 53.35449921 54.44042633 53.36607361 55.33137512 C53.31866504 59.44518219 53.17172544 61.56487731 50.92993164 65.12182617 C47.71376656 68.15650309 45.8748122 68.23098201 41.54760742 68.2746582 C40.44273483 68.28749344 39.33786224 68.30032867 38.19950867 68.31355286 C37.00058487 68.32093979 35.80166107 68.32832672 34.56640625 68.3359375 C32.72397087 68.34804512 32.72397087 68.34804512 30.84431458 68.36039734 C28.2408693 68.37424759 25.6374058 68.38496552 23.03393555 68.39282227 C19.05034029 68.40605116 15.0673547 68.45392142 11.08398438 68.49804688 C8.55729778 68.50817297 6.03060412 68.51668933 3.50390625 68.5234375 C1.71462959 68.54969963 1.71462959 68.54969963 -0.11079407 68.57649231 C-8.38782238 68.55476174 -8.38782238 68.55476174 -12.39331055 66.19604492 C-15.16202769 62.91504066 -15.29840464 61.0358331 -15.34106445 56.80932617 C-15.35389969 55.70445358 -15.36673492 54.59958099 -15.37995911 53.46122742 C-15.38734604 52.26230362 -15.39473297 51.06337982 -15.40234375 49.828125 C-15.4104155 48.59983475 -15.41848724 47.37154449 -15.42680359 46.10603333 C-15.44065384 43.50258805 -15.45137177 40.89912455 -15.45922852 38.2956543 C-15.47245741 34.31205904 -15.52032767 30.32907345 -15.56445312 26.34570312 C-15.57457922 23.81901653 -15.58309558 21.29232287 -15.58984375 18.765625 C-15.60735184 17.5727739 -15.62485992 16.37992279 -15.64289856 15.15092468 C-15.62116799 6.87389637 -15.62116799 6.87389637 -13.26245117 2.8684082 C-9.12223262 -0.62536785 -5.18621637 -0.03019455 0 0 Z " fill="#000000" transform="translate(29.1640625,13.90234375)"/>
<path d="M0 0 C1 1 1 1 1.49389648 4.07080078 C0.79045493 9.6670382 -1.98386815 12.01103997 -5.90234375 15.8671875 C-6.61346817 16.58738068 -7.32459259 17.30757385 -8.05726624 18.04959106 C-9.56438985 19.56584651 -11.08046678 21.07324778 -12.60473633 22.57226562 C-14.92482138 24.86248459 -17.20223281 27.18977354 -19.47851562 29.5234375 C-20.95071396 30.99460419 -22.42525094 32.46343507 -23.90234375 33.9296875 C-24.5777269 34.62440155 -25.25311005 35.3191156 -25.94895935 36.03488159 C-30.86660582 40.7886853 -34.15022307 41.90034556 -41 42 C-40.88166119 33.86594693 -38.66643932 30.47946646 -32.9296875 24.90234375 C-32.21523468 24.1826088 -31.50078186 23.46287384 -30.76467896 22.72132874 C-29.25615932 21.21175126 -27.73767474 19.71207354 -26.20996094 18.22192383 C-23.8764876 15.93895541 -21.58582757 13.61852673 -19.296875 11.29101562 C-17.82270004 9.82571907 -16.34621249 8.36274468 -14.8671875 6.90234375 C-14.18461884 6.20874252 -13.50205017 5.5151413 -12.79879761 4.80052185 C-8.60041713 0.76378588 -6.11274926 -0.98315247 0 0 Z " fill="#000000" transform="translate(83,12)"/>
</svg>
