<?xml version="1.0" encoding="UTF-8"?>
<svg version="1.1" xmlns="http://www.w3.org/2000/svg" width="512" height="512">
<path d="M0 0 C5.4660018 4.27168773 10.64362147 8.80254841 15.6875 13.5625 C16.42484375 14.23539063 17.1621875 14.90828125 17.921875 15.6015625 C22.45564598 19.89417545 26.388377 24.51393148 30.125 29.5 C30.59405762 30.12503418 31.06311523 30.75006836 31.54638672 31.39404297 C34.10266569 34.93859686 36.17793414 38.43905777 37.9765625 42.42578125 C41.33844964 50.68288437 41.33844964 50.68288437 47.60546875 56.546875 C52.10241189 57.84359058 56.69799455 58.02189077 61.34716797 58.31347656 C82.45562035 60.55952512 103.20988945 76.3172478 116.5703125 91.85546875 C125.66670019 103.48608991 133.37616282 116.7238584 136.0625 131.375 C136.82164736 135.15398451 136.82164736 135.15398451 139.37109375 137.7890625 C141.78990834 138.59681343 144.18499878 139.07118973 146.6875 139.5625 C173.42329278 147.64309409 193.68083336 164.48086262 207.6875 188.5625 C219.78245679 211.27516694 222.89803125 239.85355804 215.9375 264.66796875 C207.8084535 290.77224069 189.89110689 311.61700147 166.125 324.890625 C161.84267436 326.97339247 157.50514605 328.7892562 153.0625 330.5 C152.28696777 330.80703857 151.51143555 331.11407715 150.71240234 331.43041992 C143.66947337 334.00817057 136.49963938 335.01023691 129.4375 332 C124.0739897 328.91652444 120.66055937 324.84707417 118.25 319.1875 C117.06658479 311.56104643 118.21444298 305.84895851 122.6875 299.5625 C126.85564448 295.66579764 130.37633252 293.63805691 135.8125 291.6875 C151.51339433 285.72057972 164.08338341 276.96143203 171.6875 261.5625 C178.0580252 247.34660131 179.56158771 230.26840056 174 215.4375 C166.73016005 199.51308868 156.01472202 188.05221062 139.671875 181.3203125 C133.26532846 179.11504397 127.13825393 178.25025326 120.4375 177.6875 C113.436679 177.0684095 107.60967282 176.05261584 102.6875 170.5625 C99.08836486 165.29025339 98.11442941 161.35352257 97.75 155.0625 C96.31677577 138.57448489 90.47561083 124.25045058 78.2578125 112.6953125 C64.39981763 101.19612527 49.60946637 97.24566306 31.9375 97.75 C26.10988736 97.77758633 23.25717171 97.19958565 18.6875 93.5625 C13.95958026 88.86435503 11.229741 84.00743884 8.75 77.875 C-1.9952549 52.76192088 -18.81316554 34.03590416 -44.3125 23.5625 C-66.89313175 14.92721274 -93.24180038 15.76098511 -115.36572266 25.46289062 C-123.35000929 29.23693129 -130.62729681 33.77197084 -137.3125 39.5625 C-138.10914063 40.20445313 -138.90578125 40.84640625 -139.7265625 41.5078125 C-154.75433182 54.11625054 -164.64859352 72.6847833 -169.3125 91.5625 C-169.63154297 92.84060547 -169.63154297 92.84060547 -169.95703125 94.14453125 C-171.0581766 99.301694 -171.41540149 104.34431107 -171.59765625 109.59863281 C-172.2570167 128.13956193 -172.2570167 128.13956193 -179.0625 134.5 C-183.61726089 137.39052133 -188.15814621 138.94132329 -193.29296875 140.421875 C-214.06293061 146.4766787 -230.81479571 158.03435737 -241.51147461 177.11694336 C-252.04461194 196.70631473 -255.06098143 219.37224177 -248.69921875 240.890625 C-240.71028532 262.04442056 -225.8044006 278.22797808 -205.23925781 287.71484375 C-194.05938532 292.63330768 -183.21536552 294.37335476 -171.09228516 295.31176758 C-163.60209697 295.99479042 -157.73903953 297.56859072 -152.70092773 303.44091797 C-149.10213041 308.35107967 -147.85693774 313.52174445 -148.3125 319.5625 C-149.92109444 326.38413199 -152.49879471 330.68669647 -158.3125 334.5625 C-169.93706206 341.34349454 -190.68135936 336.42040069 -203.04589844 333.1953125 C-234.03641011 324.54307141 -262.17802188 304.6787031 -278.43359375 276.62792969 C-288.79697561 257.938806 -293.95001437 238.17737944 -293.75 216.8125 C-293.74695862 216.11761475 -293.74391724 215.42272949 -293.74078369 214.70678711 C-293.66719849 203.2902886 -292.73563665 192.5034218 -289.3125 181.5625 C-289.10351074 180.87881348 -288.89452148 180.19512695 -288.67919922 179.49072266 C-279.73245759 151.14932166 -259.34654512 125.31580993 -233.04296875 111.19921875 C-230.37261964 109.82675732 -227.68294128 108.50223748 -224.96875 107.21875 C-224.36466309 106.92774414 -223.76057617 106.63673828 -223.13818359 106.33691406 C-221.3125 105.5625 -221.3125 105.5625 -217.5078125 104.578125 C-213.74055455 102.2017129 -213.66957411 101.5061477 -212.7109375 97.328125 C-212.34281711 95.160659 -212.00317274 92.98822338 -211.6875 90.8125 C-211.28906847 88.51969141 -210.88414408 86.22800141 -210.47265625 83.9375 C-210.27816895 82.83148438 -210.08368164 81.72546875 -209.88330078 80.5859375 C-205.38360983 56.75181741 -191.89758546 34.84326858 -175.3125 17.5625 C-174.48234375 16.66917969 -173.6521875 15.77585938 -172.796875 14.85546875 C-128.94487476 -30.98397595 -51.11388364 -37.39247213 0 0 Z " fill="#000000" transform="translate(293.3125,23.4375)"/>
<path d="M0 0 C5.0533662 3.12070462 7.93997249 6.44532529 10.234375 11.89453125 C11.61423915 18.71114206 11.40863187 25.61066165 11.43969727 32.54077148 C11.44928847 33.9210997 11.45929927 35.30142505 11.46969604 36.68174744 C11.49661662 40.4126005 11.51769531 44.14346605 11.53769803 47.87436175 C11.5596373 51.77946898 11.58698697 55.68453829 11.61375427 59.58961487 C11.66357417 66.97713173 11.70855249 74.36466976 11.75177664 81.75222784 C11.80124076 90.16579805 11.85612473 98.57933019 11.91145623 106.99286354 C12.02511186 124.29338422 12.13198635 141.59394029 12.234375 158.89453125 C12.69328125 158.48460937 13.1521875 158.0746875 13.625 157.65234375 C14.23859375 157.11351562 14.8521875 156.5746875 15.484375 156.01953125 C16.08765625 155.48585938 16.6909375 154.9521875 17.3125 154.40234375 C22.49093101 150.33959097 27.22774436 150.35247926 33.67578125 150.453125 C40.58011188 151.30953484 44.40531066 154.75318763 48.796875 159.89453125 C51.40604899 165.35559309 51.37740581 172.08105196 50.234375 177.89453125 C46.41182841 185.0663223 40.86216684 190.70741587 35.14453125 196.3828125 C34.28178085 197.24843307 33.41903046 198.11405365 32.53013611 199.00590515 C30.71591303 200.82215826 28.89794185 202.63467446 27.07641602 204.44360352 C24.29805599 207.20585711 21.53611846 209.9838081 18.77539062 212.76367188 C17.00356557 214.53351508 15.23081042 216.30242776 13.45703125 218.0703125 C12.6370314 218.89638504 11.81703156 219.72245758 10.97218323 220.57356262 C4.7401249 226.73015586 -0.45468396 231.45704186 -9.640625 231.51953125 C-10.77242187 231.55304688 -11.90421875 231.5865625 -13.0703125 231.62109375 C-22.20815881 229.82443475 -28.92145366 222.18426917 -35.25390625 215.8046875 C-36.11952682 214.9419371 -36.9851474 214.07918671 -37.8769989 213.19029236 C-39.69325201 211.37606928 -41.50576821 209.5580981 -43.31469727 207.73657227 C-46.07695086 204.95821224 -48.85490185 202.19627471 -51.63476562 199.43554688 C-53.40460883 197.66372182 -55.17352151 195.89096667 -56.94140625 194.1171875 C-57.76747879 193.29718765 -58.59355133 192.47718781 -59.44465637 191.63233948 C-65.60124961 185.40028115 -70.32813561 180.20547229 -70.390625 171.01953125 C-70.17838344 164.13997715 -68.58962241 159.80486419 -63.765625 154.89453125 C-58.39644814 150.30835935 -53.1784568 150.18199579 -46.22265625 150.3671875 C-39.53418135 151.38746333 -35.37846787 155.24764526 -30.765625 159.89453125 C-30.76600203 159.14007501 -30.76637905 158.38561876 -30.7667675 157.60830021 C-30.77389257 139.22887025 -30.74791555 120.84975789 -30.6853466 102.47042942 C-30.65588191 93.58219339 -30.6375154 84.69419599 -30.64550781 75.8059082 C-30.65244771 68.05652042 -30.63832759 60.30750212 -30.59918892 52.55820507 C-30.57920356 48.45698683 -30.56958101 44.35634836 -30.58520126 40.25509834 C-30.59959019 36.38962148 -30.58568273 32.5252492 -30.55067253 28.65991402 C-30.54274627 27.24627648 -30.54489358 25.83253831 -30.55823326 24.4189415 C-30.63403503 15.63916718 -29.87272769 9.49362678 -23.765625 2.89453125 C-17.29271618 -2.6344117 -7.84970384 -3.13766411 0 0 Z " fill="#000000" transform="translate(205.765625,281.10546875)"/>
<path d="M0 0 C0.94875 -0.0103125 1.8975 -0.020625 2.875 -0.03125 C11.9942271 1.51901861 17.58127063 7.50403426 23.828125 13.83203125 C24.73955261 14.74200363 25.65098022 15.65197601 26.59002686 16.58952332 C28.50914763 18.50726725 30.42117575 20.43172677 32.328125 22.36157227 C34.75933405 24.82118376 37.20581729 27.26489666 39.65761185 29.703969 C42.0138244 32.05151225 44.35802441 34.41088652 46.703125 36.76953125 C47.57608215 37.63955276 48.44903931 38.50957428 49.34844971 39.40596008 C55.61743913 45.7725465 60.56121229 50.99820678 60.625 60.375 C60.41275844 67.2545541 58.82399741 71.58966706 54 76.5 C48.63119944 81.08585048 43.41582392 81.20920019 36.4609375 81.03125 C30.29673854 80.08505242 26.30317239 76.80317239 22 72.5 C21.99668985 73.21322639 21.99337971 73.92645277 21.98996925 74.66129208 C21.90864489 92.03922877 21.81652169 109.41707489 21.71247292 126.7948904 C21.6624138 135.19877247 21.61597026 143.60264512 21.578125 152.0065918 C21.54511852 159.33397685 21.50523985 166.66128728 21.45720994 173.98858982 C21.43203076 177.86605648 21.41022446 181.74347418 21.39665604 185.62100029 C21.38375738 189.27603048 21.36162021 192.93089203 21.33261681 196.58582878 C21.31932652 198.55573132 21.31563468 200.52569143 21.31230164 202.49563599 C21.22144649 212.18344959 21.04002611 221.19502667 14 228.5 C8.56951235 233.00614932 3.41529443 233.22650908 -3.546875 233.01171875 C-10.17271675 232.02983496 -14.09199725 228.99745598 -18.08258057 223.77403259 C-21.2644554 218.04054434 -20.5711438 211.49125425 -20.54589844 205.11938477 C-20.55464147 203.66023155 -20.5651298 202.2010879 -20.57722473 200.74195862 C-20.60501636 196.79614125 -20.60849094 192.85063777 -20.60750484 188.90473676 C-20.61063986 184.77536365 -20.63627028 180.64613069 -20.65948486 176.51683044 C-20.70000344 168.70430301 -20.72037581 160.89185895 -20.73345876 153.07924265 C-20.74934286 144.18195606 -20.78776441 135.28481108 -20.82805204 126.38760674 C-20.91039427 108.09178263 -20.96452181 89.79597199 -21 71.5 C-21.53109375 71.98210937 -22.0621875 72.46421875 -22.609375 72.9609375 C-23.31578125 73.59257812 -24.0221875 74.22421875 -24.75 74.875 C-25.44609375 75.50148438 -26.1421875 76.12796875 -26.859375 76.7734375 C-32.12555183 81.02097429 -36.80150113 81.04504681 -43.44140625 80.94140625 C-50.34573688 80.08499641 -54.17093566 76.64134362 -58.5625 71.5 C-61.17167399 66.03893816 -61.14303081 59.31347929 -60 53.5 C-56.1799563 46.34122147 -50.64406349 40.69004021 -44.9453125 35.01171875 C-44.08493378 34.14609818 -43.22455505 33.2804776 -42.33810425 32.3886261 C-40.52816249 30.57229665 -38.71438552 28.7597816 -36.89697266 26.95092773 C-34.12782774 24.19031903 -31.3779041 21.41151414 -28.62890625 18.63085938 C-26.8605065 16.86084797 -25.09101177 15.09192974 -23.3203125 13.32421875 C-22.50547394 12.49814621 -21.69063538 11.67207367 -20.85110474 10.82096863 C-14.80275511 4.84528158 -8.95030577 -0.09728593 0 0 Z " fill="#000000" transform="translate(316,279.5)"/>
</svg>
